<?xml version="1.0" encoding="utf-8"?>
<!-- Generator: Adobe Illustrator 18.0.0, SVG Export Plug-In . SVG Version: 6.00 Build 0)  -->
<!DOCTYPE svg PUBLIC "-//W3C//DTD SVG 1.1//EN" "http://www.w3.org/Graphics/SVG/1.1/DTD/svg11.dtd">
<svg version="1.1" id="Layer_1" xmlns="http://www.w3.org/2000/svg" xmlns:xlink="http://www.w3.org/1999/xlink" x="0px" y="0px"
	 viewBox="0 0 64 64" enable-background="new 0 0 64 64" xml:space="preserve">
<g>
	<path d="M0,7v50h64V7H0z M60,11v38.5L46.1,33l-8.1,8.2L24,23.8L4,49.2V11H60z M57.7,53H6.1L24,30.2l13.7,17.1l8.1-8.3L57.7,53z"/>
	<path d="M48,29c3.9,0,7-3.1,7-7s-3.1-7-7-7s-7,3.1-7,7S44.1,29,48,29z M48,19c1.7,0,3,1.3,3,3s-1.3,3-3,3s-3-1.3-3-3S46.3,19,48,19
		z"/>
</g>
</svg>
